<svg xmlns="http://www.w3.org/2000/svg" xmlns:xlink="http://www.w3.org/1999/xlink" version="1.1" x="0px" y="0px" viewBox="0 0 100 125" enable-background="new 0 0 100 100" xml:space="preserve"><g><defs><rect id="b" x="5.5" y="16.802" width="90" height="66.698"/></defs><clipPath id="a"><use xlink:href="#b" overflow="visible"/></clipPath><path clip-path="url(#a)" fill="#1a1b71" d="M95.277,52.025l0.014,0.001c0.066,0,0.123-0.05,0.131-0.117   c0.039-0.352,0.066-0.706,0.078-1.052c0.002-0.072-0.055-0.132-0.127-0.135c-0.072,0.005-0.133,0.054-0.135,0.126   c-0.012,0.34-0.037,0.687-0.076,1.031C95.154,51.952,95.205,52.018,95.277,52.025 M95.008,52.903   c-0.062,0.334-0.141,0.673-0.227,1.009c-0.02,0.071,0.022,0.143,0.092,0.16l0.033,0.005c0.06,0,0.112-0.039,0.127-0.098   c0.09-0.343,0.168-0.688,0.232-1.028c0.014-0.071-0.033-0.139-0.105-0.153C95.092,52.784,95.021,52.832,95.008,52.903    M92.189,59.544c-0.039,0.061-0.023,0.143,0.038,0.183l0.072,0.021l0.11-0.059c0.193-0.296,0.381-0.596,0.558-0.892   c0.036-0.061,0.017-0.142-0.046-0.179c-0.062-0.037-0.143-0.017-0.18,0.046C92.568,58.956,92.383,59.252,92.189,59.544    M81.675,69.497c-0.06,0.039-0.077,0.12-0.038,0.181l0.109,0.061l0.071-0.022c0.296-0.189,0.587-0.384,0.873-0.579   c0.06-0.04,0.075-0.121,0.035-0.182c-0.04-0.06-0.122-0.075-0.183-0.035C82.258,69.114,81.969,69.307,81.675,69.497 M79.901,70.594   c-0.062,0.037-0.083,0.118-0.046,0.181l0.113,0.064l0.066-0.019c0.303-0.178,0.602-0.36,0.897-0.543   c0.062-0.038,0.08-0.118,0.042-0.18s-0.118-0.08-0.182-0.042C80.5,70.236,80.203,70.416,79.901,70.594 M78.086,71.62   c-0.063,0.034-0.088,0.114-0.053,0.177l0.115,0.07l0.062-0.016c0.309-0.167,0.615-0.335,0.918-0.507   c0.062-0.034,0.084-0.114,0.05-0.178c-0.037-0.062-0.117-0.086-0.179-0.051C78.699,71.286,78.394,71.455,78.086,71.62    M76.231,72.575c-0.065,0.032-0.091,0.11-0.06,0.176l0.117,0.073l0.059-0.014c0.314-0.155,0.627-0.312,0.938-0.472   c0.063-0.032,0.088-0.111,0.056-0.176c-0.033-0.064-0.112-0.09-0.177-0.057C76.856,72.265,76.545,72.421,76.231,72.575    M74.344,73.461c-0.066,0.03-0.096,0.107-0.066,0.173l0.12,0.078l0.054-0.011c0.319-0.144,0.637-0.29,0.953-0.437   c0.064-0.031,0.094-0.109,0.062-0.176c-0.032-0.064-0.109-0.094-0.176-0.062C74.979,73.174,74.662,73.318,74.344,73.461    M72.353,74.451l0.121,0.081l0.05-0.009c0.325-0.133,0.646-0.268,0.967-0.403c0.067-0.028,0.098-0.104,0.069-0.172   s-0.108-0.098-0.171-0.069c-0.318,0.137-0.641,0.27-0.964,0.401C72.357,74.308,72.326,74.383,72.353,74.451 M70.4,75.199   c0.02,0.053,0.07,0.086,0.124,0.086l0.046-0.008c0.328-0.121,0.655-0.243,0.979-0.369c0.067-0.026,0.102-0.102,0.075-0.17   s-0.104-0.102-0.17-0.075c-0.322,0.125-0.648,0.248-0.976,0.368C70.41,75.057,70.377,75.131,70.4,75.199 M68.426,75.883   c0.018,0.056,0.068,0.091,0.124,0.091l0.041-0.007c0.333-0.109,0.663-0.222,0.991-0.336c0.069-0.023,0.105-0.099,0.082-0.167   c-0.024-0.068-0.099-0.105-0.166-0.081c-0.328,0.113-0.658,0.226-0.989,0.335C68.439,75.74,68.401,75.815,68.426,75.883    M66.428,76.501c0.018,0.058,0.068,0.094,0.126,0.094l0.037-0.005c0.336-0.099,0.67-0.199,1.002-0.304   c0.069-0.021,0.108-0.095,0.086-0.164c-0.021-0.069-0.095-0.11-0.163-0.086c-0.331,0.104-0.664,0.204-0.999,0.302   C66.447,76.359,66.408,76.432,66.428,76.501 M64.385,77.062c0.015,0.059,0.068,0.098,0.126,0.098l0.034-0.005   c0.177-0.046,0.354-0.093,0.531-0.141l0.506-0.137c0.069-0.02,0.111-0.092,0.092-0.161c-0.018-0.069-0.09-0.108-0.16-0.093   l-0.505,0.137c-0.177,0.049-0.354,0.096-0.531,0.142C64.408,76.92,64.365,76.991,64.385,77.062 M62.234,77.575   c0.014,0.061,0.067,0.102,0.127,0.102l0.028-0.003c0.358-0.079,0.717-0.162,1.076-0.249c0.071-0.017,0.114-0.088,0.097-0.158   s-0.086-0.116-0.158-0.097c-0.357,0.086-0.715,0.169-1.07,0.248C62.263,77.435,62.219,77.504,62.234,77.575 M60.074,78.012   c0.012,0.063,0.066,0.106,0.129,0.106l0.023-0.002c0.359-0.067,0.723-0.138,1.084-0.212c0.071-0.015,0.117-0.084,0.102-0.155   c-0.014-0.069-0.08-0.116-0.154-0.102c-0.36,0.075-0.721,0.145-1.079,0.211C60.107,77.872,60.061,77.94,60.074,78.012 M57.9,78.373   c0.01,0.065,0.065,0.112,0.129,0.112l0.02-0.002c0.363-0.054,0.727-0.112,1.091-0.173c0.071-0.014,0.119-0.08,0.108-0.152   c-0.014-0.072-0.084-0.121-0.152-0.107c-0.362,0.062-0.725,0.119-1.085,0.174C57.938,78.235,57.89,78.301,57.9,78.373    M55.713,78.655c0.009,0.067,0.064,0.117,0.131,0.117l0.015-0.001c0.365-0.041,0.729-0.086,1.097-0.135   c0.071-0.01,0.123-0.075,0.112-0.147c-0.009-0.072-0.071-0.121-0.147-0.112c-0.364,0.048-0.729,0.093-1.09,0.134   C55.758,78.52,55.705,78.583,55.713,78.655 M45.747,79.503c0.015,0.175,0.223,0.282,0.623,0.323   c0.399,0.041,1.069,0.021,2.008-0.062l1.019,1.145l-0.14,0.012c-0.134,0.013-0.233,0.041-0.298,0.088s-0.095,0.108-0.088,0.186   s0.046,0.133,0.119,0.168c0.072,0.034,0.175,0.046,0.309,0.034l0.486-0.042l0.654,0.747l-0.134,0.011   c-0.134,0.012-0.235,0.041-0.302,0.088c-0.067,0.047-0.098,0.108-0.091,0.186s0.048,0.134,0.122,0.167   c0.074,0.035,0.179,0.047,0.312,0.035l0.486-0.043c0.262,0.374,0.504,0.632,0.731,0.773c0.226,0.142,0.481,0.201,0.767,0.176   l0.127-0.011c-0.512-0.864-0.928-1.626-1.244-2.285s-0.484-1.095-0.504-1.306c-0.019-0.225,0.345-0.39,1.091-0.495   c0.597-0.085,1.104-0.174,1.526-0.269c0.086,0.055,0.215,0.174,0.385,0.362c0.173,0.187,0.396,0.451,0.67,0.792   c0.111,0.018,0.227,0.033,0.344,0.043c0.118,0.01,0.236,0.018,0.361,0.024c-0.144-0.278-0.266-0.539-0.366-0.782   c-0.095-0.229-0.171-0.448-0.233-0.66c0.092-0.008,0.182-0.015,0.274-0.023c0.071-0.007,0.125-0.07,0.118-0.143   c-0.008-0.072-0.059-0.124-0.143-0.118c-0.058,0.005-0.115,0.009-0.173,0.015c-0.038-0.007-0.071-0.015-0.114-0.02   c0.028-0.239,0.072-0.49,0.131-0.751c0.06-0.261,0.133-0.532,0.223-0.815c-0.188,0.042-0.405,0.101-0.652,0.176l-0.035,0.014   c-0.211,0.387-0.385,0.688-0.521,0.903c-0.138,0.214-0.241,0.352-0.313,0.411c-0.404-0.011-0.897-0.006-1.48,0.013   c-0.803,0.024-1.213-0.076-1.233-0.304c-0.018-0.207,0.071-0.659,0.267-1.355c0.197-0.697,0.474-1.525,0.83-2.485l-0.127,0.012   c-0.283,0.024-0.525,0.127-0.724,0.306s-0.394,0.475-0.587,0.889l-0.486,0.042c-0.134,0.013-0.234,0.042-0.301,0.088   c-0.068,0.048-0.098,0.109-0.091,0.187c0.007,0.078,0.047,0.133,0.121,0.168c0.075,0.034,0.179,0.045,0.313,0.034l0.133-0.013   l-0.513,0.85l-0.486,0.042c-0.134,0.012-0.233,0.041-0.299,0.088c-0.065,0.046-0.094,0.109-0.087,0.186   c0.006,0.077,0.046,0.134,0.118,0.168c0.073,0.034,0.175,0.047,0.309,0.033l0.14-0.011l-0.804,1.303   c-0.916,0.08-1.573,0.177-1.972,0.287C45.924,79.192,45.732,79.332,45.747,79.503 M24.168,65.409   c-0.011,0.071,0.038,0.138,0.11,0.149c0.178,0.026,0.358,0.053,0.538,0.077l0.018,0.001c0.065,0,0.121-0.048,0.13-0.112   c0.01-0.072-0.041-0.139-0.112-0.148c-0.179-0.024-0.357-0.05-0.535-0.077C24.248,65.289,24.18,65.337,24.168,65.409    M22.032,65.023c-0.014,0.07,0.031,0.14,0.102,0.154c0.352,0.072,0.708,0.141,1.068,0.204l0.023,0.002   c0.062,0,0.118-0.044,0.129-0.107c0.013-0.071-0.035-0.141-0.106-0.152c-0.358-0.063-0.711-0.132-1.061-0.203   C22.114,64.907,22.046,64.952,22.032,65.023 M19.925,64.518c-0.019,0.069,0.023,0.142,0.092,0.159   c0.347,0.095,0.699,0.183,1.055,0.267l0.03,0.004c0.06,0,0.114-0.041,0.128-0.101c0.017-0.071-0.027-0.142-0.098-0.158   c-0.353-0.083-0.702-0.172-1.047-0.265C20.014,64.407,19.943,64.447,19.925,64.518 M13.884,62.146   c-0.034,0.063-0.01,0.144,0.054,0.177c0.315,0.169,0.642,0.335,0.973,0.493l0.056,0.013l0.118-0.075   c0.032-0.064,0.004-0.144-0.061-0.175c-0.327-0.156-0.651-0.32-0.962-0.486C13.998,62.058,13.918,62.081,13.884,62.146    M7.498,56.427c-0.061,0.038-0.079,0.12-0.04,0.181c0.194,0.304,0.404,0.605,0.624,0.897l0.105,0.053l0.079-0.026   c0.058-0.044,0.069-0.126,0.026-0.184c-0.217-0.286-0.423-0.583-0.613-0.881C7.64,56.405,7.558,56.389,7.498,56.427 M6.515,54.499   c-0.067,0.028-0.098,0.104-0.07,0.171c0.139,0.334,0.295,0.667,0.465,0.991l0.116,0.07l0.061-0.016   c0.064-0.032,0.088-0.112,0.055-0.177c-0.166-0.316-0.319-0.643-0.455-0.97C6.658,54.502,6.581,54.472,6.515,54.499 M5.789,52.604   c0.038,0.172,0.08,0.343,0.126,0.514c0.048,0.176,0.099,0.351,0.154,0.525c0.017,0.056,0.069,0.091,0.124,0.091l0.04-0.006   c0.069-0.022,0.107-0.096,0.085-0.164c-0.053-0.17-0.103-0.342-0.15-0.515c-0.044-0.167-0.086-0.335-0.123-0.503   c-0.016-0.07-0.083-0.116-0.157-0.099C5.817,52.462,5.772,52.532,5.789,52.604 M5.508,50.499c0.016,0.352,0.048,0.705,0.094,1.052   c0.009,0.066,0.065,0.113,0.13,0.113l0.017-0.001c0.072-0.009,0.123-0.075,0.113-0.146c-0.045-0.341-0.076-0.687-0.093-1.029   c-0.003-0.073-0.065-0.141-0.137-0.125C5.56,50.366,5.503,50.427,5.508,50.499 M5.723,48.277c-0.065-0.007-0.137,0.043-0.145,0.115   c-0.039,0.35-0.065,0.704-0.078,1.052c-0.002,0.072,0.055,0.133,0.127,0.135h0.005c0.07,0,0.128-0.055,0.131-0.126   c0.011-0.342,0.037-0.688,0.076-1.031C5.847,48.351,5.794,48.285,5.723,48.277 M5.993,47.399c0.063-0.335,0.14-0.675,0.227-1.01   c0.019-0.07-0.023-0.143-0.093-0.16c-0.071-0.018-0.142,0.023-0.16,0.094c-0.089,0.34-0.167,0.686-0.232,1.027   c-0.013,0.07,0.034,0.14,0.105,0.152l0.024,0.003C5.926,47.506,5.98,47.462,5.993,47.399 M6.516,45.397   c0.107-0.322,0.227-0.65,0.356-0.974c0.027-0.067-0.006-0.144-0.073-0.171c-0.068-0.026-0.144,0.006-0.17,0.073   c-0.132,0.329-0.253,0.661-0.362,0.988c-0.023,0.068,0.014,0.143,0.083,0.166l0.041,0.007C6.446,45.487,6.497,45.452,6.516,45.397    M7.749,42.543c0.034-0.063,0.01-0.143-0.054-0.177c-0.064-0.034-0.144-0.01-0.177,0.054c-0.166,0.311-0.324,0.627-0.47,0.941   c-0.031,0.064-0.003,0.143,0.063,0.174l0.055,0.012l0.119-0.074C7.43,43.162,7.585,42.85,7.749,42.543 M8.81,40.758   c0.04-0.061,0.023-0.142-0.038-0.182c-0.06-0.039-0.141-0.023-0.181,0.038c-0.195,0.296-0.382,0.595-0.558,0.89   c-0.037,0.062-0.016,0.144,0.046,0.181l0.067,0.018l0.112-0.063C8.432,41.348,8.617,41.051,8.81,40.758 M9.71,58.956   c-0.258-0.253-0.507-0.515-0.74-0.779c-0.048-0.054-0.131-0.059-0.185-0.012c-0.054,0.048-0.059,0.132-0.011,0.187   c0.237,0.268,0.49,0.533,0.753,0.792l0.091,0.038l0.094-0.04L9.71,58.956z M10.022,39.068c0.044-0.058,0.034-0.139-0.024-0.185   c-0.056-0.044-0.139-0.033-0.184,0.023c-0.217,0.279-0.427,0.56-0.629,0.841c-0.042,0.059-0.029,0.141,0.03,0.184l0.077,0.023   l0.106-0.054C9.599,39.622,9.807,39.345,10.022,39.068 M10.502,59.684c-0.055-0.048-0.138-0.041-0.185,0.014   c-0.047,0.055-0.041,0.138,0.014,0.185c0.27,0.232,0.555,0.462,0.849,0.687l0.08,0.025l0.104-0.052   c0.044-0.058,0.033-0.14-0.025-0.184C11.05,60.14,10.769,59.912,10.502,59.684 M11.359,37.476c0.048-0.055,0.044-0.138-0.01-0.186   c-0.053-0.048-0.137-0.045-0.185,0.009c-0.236,0.264-0.466,0.527-0.689,0.792c-0.047,0.057-0.04,0.139,0.016,0.186l0.084,0.031   l0.101-0.048C10.897,37.997,11.125,37.735,11.359,37.476 M12.801,35.973l0.002-0.186l-0.185-0.002   c-0.252,0.247-0.498,0.496-0.739,0.746c-0.05,0.052-0.048,0.135,0.004,0.185l0.091,0.037l0.095-0.04   C12.307,36.464,12.551,36.217,12.801,35.973 M13.169,61.74c0.037-0.062,0.017-0.142-0.045-0.18   c-0.311-0.187-0.617-0.38-0.909-0.576c-0.06-0.041-0.142-0.026-0.182,0.035c-0.041,0.06-0.025,0.142,0.035,0.182   c0.296,0.199,0.606,0.396,0.921,0.584l0.067,0.02L13.169,61.74z M14.33,34.559c0.054-0.049,0.06-0.132,0.012-0.186   c-0.047-0.055-0.13-0.06-0.185-0.013c-0.265,0.232-0.525,0.466-0.78,0.702c-0.053,0.049-0.056,0.132-0.007,0.185l0.096,0.042   l0.089-0.035C13.808,35.021,14.065,34.788,14.33,34.559 M15.934,33.228c0.056-0.044,0.066-0.127,0.022-0.185   c-0.045-0.056-0.128-0.066-0.184-0.021c-0.277,0.218-0.549,0.438-0.816,0.659c-0.056,0.047-0.064,0.129-0.018,0.185l0.101,0.047   l0.084-0.03C15.389,33.662,15.659,33.444,15.934,33.228 M17.004,63.43c-0.339-0.131-0.672-0.266-1-0.406   c-0.066-0.028-0.143,0.003-0.172,0.068c-0.028,0.067,0.003,0.145,0.069,0.173c0.33,0.142,0.667,0.277,1.009,0.408l0.047,0.01   c0.053,0,0.103-0.032,0.123-0.083C17.106,63.531,17.073,63.455,17.004,63.43 M17.602,31.978c0.058-0.042,0.072-0.124,0.03-0.184   c-0.042-0.059-0.124-0.071-0.183-0.029c-0.286,0.203-0.568,0.409-0.846,0.617c-0.058,0.044-0.07,0.126-0.027,0.185l0.105,0.052   l0.079-0.026C17.036,32.385,17.316,32.181,17.602,31.978 M19.046,64.127c-0.348-0.104-0.69-0.216-1.027-0.331   c-0.069-0.023-0.143,0.014-0.166,0.082c-0.024,0.068,0.013,0.144,0.081,0.166c0.34,0.116,0.686,0.229,1.036,0.334l0.038,0.006   c0.056,0,0.108-0.036,0.126-0.093C19.156,64.222,19.116,64.148,19.046,64.127 M19.325,30.806c0.061-0.04,0.078-0.121,0.039-0.182   s-0.121-0.078-0.181-0.039c-0.295,0.191-0.587,0.384-0.874,0.58c-0.06,0.041-0.075,0.122-0.034,0.183l0.108,0.057l0.074-0.022   C18.742,31.188,19.032,30.995,19.325,30.806 M21.098,29.707c0.063-0.037,0.083-0.118,0.046-0.18   c-0.037-0.063-0.118-0.083-0.179-0.046c-0.303,0.179-0.602,0.359-0.897,0.543c-0.062,0.038-0.081,0.119-0.043,0.18l0.112,0.062   l0.069-0.02C20.5,30.065,20.796,29.885,21.098,29.707 M22.914,28.682c0.064-0.034,0.088-0.113,0.053-0.178   c-0.034-0.063-0.114-0.088-0.177-0.053c-0.309,0.166-0.615,0.335-0.918,0.506c-0.063,0.036-0.085,0.116-0.05,0.179l0.115,0.066   L22,29.186C22.302,29.016,22.606,28.848,22.914,28.682 M24.769,27.727c0.064-0.031,0.091-0.11,0.059-0.176   c-0.032-0.064-0.11-0.092-0.175-0.06c-0.315,0.155-0.627,0.312-0.936,0.471c-0.064,0.033-0.09,0.112-0.057,0.178l0.117,0.07   l0.06-0.015C24.145,28.037,24.455,27.881,24.769,27.727 M26.657,26.841c0.066-0.029,0.095-0.106,0.066-0.174   c-0.03-0.064-0.107-0.095-0.173-0.065c-0.321,0.144-0.638,0.289-0.953,0.436c-0.066,0.031-0.094,0.109-0.063,0.175l0.119,0.075   l0.055-0.012C26.021,27.128,26.337,26.983,26.657,26.841 M28.647,25.853c-0.028-0.068-0.105-0.101-0.171-0.072   c-0.325,0.131-0.647,0.266-0.967,0.402c-0.066,0.028-0.098,0.105-0.069,0.172l0.12,0.08l0.052-0.011   c0.318-0.136,0.639-0.27,0.963-0.4C28.643,25.995,28.675,25.919,28.647,25.853 M30.6,25.103c-0.025-0.068-0.101-0.104-0.168-0.078   c-0.33,0.121-0.656,0.244-0.981,0.369c-0.067,0.025-0.101,0.102-0.075,0.17c0.02,0.052,0.07,0.084,0.122,0.084l0.048-0.009   c0.323-0.125,0.648-0.247,0.976-0.368C30.59,25.245,30.625,25.17,30.6,25.103 M32.576,24.419c-0.023-0.068-0.096-0.104-0.166-0.084   c-0.333,0.11-0.664,0.223-0.992,0.337c-0.068,0.024-0.105,0.099-0.081,0.167c0.019,0.055,0.07,0.088,0.124,0.088l0.043-0.008   c0.327-0.113,0.656-0.225,0.988-0.334C32.561,24.562,32.598,24.488,32.576,24.419 M34.573,23.801   c-0.021-0.068-0.092-0.108-0.163-0.089c-0.336,0.1-0.67,0.2-1.002,0.305c-0.07,0.021-0.108,0.095-0.087,0.164   c0.018,0.056,0.069,0.092,0.125,0.092l0.039-0.006c0.331-0.104,0.664-0.204,0.999-0.303C34.553,23.943,34.593,23.87,34.573,23.801    M36.617,23.24c-0.019-0.07-0.09-0.112-0.16-0.093c-0.178,0.046-0.356,0.093-0.534,0.141c-0.169,0.044-0.337,0.091-0.506,0.137   c-0.069,0.02-0.11,0.092-0.091,0.161c0.016,0.059,0.069,0.097,0.126,0.097l0.035-0.005c0.167-0.046,0.335-0.092,0.504-0.137   c0.178-0.048,0.354-0.095,0.532-0.141C36.593,23.382,36.635,23.312,36.617,23.24 M38.766,22.729   c-0.016-0.071-0.086-0.115-0.156-0.101c-0.358,0.08-0.717,0.163-1.076,0.25c-0.07,0.017-0.114,0.087-0.097,0.158   c0.014,0.061,0.068,0.1,0.128,0.1l0.03-0.004c0.358-0.085,0.715-0.168,1.072-0.248C38.738,22.869,38.782,22.799,38.766,22.729    M40.926,22.29c-0.014-0.071-0.081-0.117-0.153-0.104c-0.36,0.066-0.721,0.138-1.084,0.212c-0.071,0.015-0.116,0.084-0.102,0.154   c0.013,0.062,0.068,0.105,0.129,0.105l0.026-0.003c0.361-0.074,0.72-0.145,1.079-0.211C40.892,22.431,40.938,22.362,40.926,22.29    M43.1,21.93c-0.011-0.071-0.077-0.119-0.149-0.11c-0.363,0.055-0.726,0.112-1.091,0.174c-0.071,0.011-0.119,0.079-0.107,0.15   c0.011,0.064,0.066,0.109,0.129,0.109l0.022-0.002c0.363-0.061,0.725-0.118,1.086-0.173C43.062,22.068,43.111,22.001,43.1,21.93    M45.286,21.647c-0.008-0.072-0.078-0.123-0.145-0.116c-0.364,0.041-0.73,0.086-1.097,0.134c-0.071,0.01-0.122,0.076-0.113,0.147   c0.009,0.065,0.066,0.113,0.13,0.113l0.018-0.001c0.365-0.048,0.729-0.092,1.091-0.133C45.242,21.784,45.293,21.719,45.286,21.647    M55.252,20.799c-0.014-0.175-0.221-0.281-0.621-0.322c-0.399-0.041-1.069-0.021-2.01,0.062l-1.018-1.145l0.139-0.013   c0.135-0.012,0.233-0.041,0.299-0.088c0.065-0.046,0.095-0.107,0.088-0.185c-0.008-0.077-0.045-0.133-0.118-0.168   c-0.073-0.034-0.177-0.046-0.31-0.034l-0.486,0.042l-0.653-0.746l0.134-0.012c0.135-0.013,0.235-0.041,0.303-0.089   c0.066-0.046,0.097-0.108,0.09-0.186c-0.006-0.077-0.047-0.133-0.121-0.167c-0.075-0.035-0.18-0.046-0.312-0.035l-0.486,0.043   c-0.262-0.374-0.506-0.632-0.733-0.773c-0.226-0.142-0.481-0.201-0.765-0.175l-0.128,0.011c0.513,0.864,0.927,1.626,1.244,2.285   c0.317,0.66,0.485,1.095,0.503,1.307c0.02,0.223-0.343,0.388-1.089,0.493c-0.597,0.086-1.106,0.175-1.526,0.269   c-0.086-0.054-0.215-0.174-0.386-0.361c-0.172-0.188-0.395-0.451-0.67-0.792c-0.112-0.019-0.226-0.033-0.343-0.043   c-0.118-0.011-0.238-0.019-0.361-0.024c0.143,0.278,0.265,0.539,0.365,0.782c0.096,0.229,0.172,0.448,0.235,0.66   c-0.092,0.008-0.183,0.015-0.276,0.023c-0.072,0.006-0.125,0.07-0.118,0.143c0.007,0.067,0.064,0.119,0.13,0.119h0.013   c0.058-0.007,0.116-0.011,0.174-0.016c0.037,0.006,0.071,0.014,0.113,0.02c-0.029,0.238-0.072,0.489-0.131,0.751   c-0.059,0.261-0.133,0.531-0.223,0.814c0.189-0.042,0.406-0.099,0.653-0.175l0.036-0.014c0.21-0.389,0.384-0.688,0.52-0.903   c0.137-0.214,0.241-0.351,0.313-0.411c0.405,0.01,0.899,0.005,1.481-0.012c0.802-0.025,1.213,0.075,1.233,0.303   c0.018,0.207-0.071,0.659-0.267,1.355c-0.197,0.696-0.473,1.524-0.83,2.484l0.127-0.011c0.284-0.025,0.525-0.127,0.724-0.306   c0.198-0.18,0.394-0.476,0.586-0.89l0.486-0.043c0.134-0.011,0.233-0.041,0.302-0.087c0.066-0.047,0.098-0.108,0.091-0.186   s-0.047-0.133-0.122-0.168c-0.074-0.034-0.178-0.045-0.312-0.034l-0.134,0.012l0.514-0.849l0.486-0.043   c0.134-0.012,0.232-0.041,0.298-0.087c0.065-0.047,0.095-0.108,0.088-0.187c-0.007-0.077-0.046-0.133-0.119-0.168   c-0.071-0.034-0.174-0.046-0.308-0.033l-0.141,0.012l0.805-1.305c0.916-0.079,1.572-0.175,1.971-0.286   C55.076,21.11,55.268,20.97,55.252,20.799 M76.832,34.894c0.011-0.071-0.039-0.139-0.11-0.149   c-0.179-0.027-0.358-0.053-0.538-0.078c-0.079-0.01-0.139,0.041-0.148,0.112c-0.01,0.072,0.041,0.138,0.112,0.147   c0.179,0.025,0.356,0.051,0.534,0.077l0.02,0.001C76.766,35.004,76.822,34.958,76.832,34.894 M78.969,35.279   c0.014-0.071-0.031-0.14-0.102-0.155c-0.353-0.073-0.709-0.141-1.068-0.205c-0.077-0.014-0.141,0.036-0.152,0.107   c-0.013,0.071,0.035,0.139,0.105,0.151c0.357,0.063,0.711,0.132,1.062,0.203l0.026,0.002C78.9,35.383,78.955,35.341,78.969,35.279    M81.276,49.757h-6.122c-0.039-3.616-0.686-7.011-1.789-9.972h5.101C80.195,42.725,81.215,46.122,81.276,49.757 M78.039,39.084   H73.08c-1.599-3.921-4.019-6.996-6.896-8.682C71.129,31.74,75.33,34.879,78.039,39.084 M63.254,29.956   c3.806,0.938,7.076,4.344,9.084,9.128h-5.284C66.205,34.762,64.865,31.498,63.254,29.956 M66.326,39.084h-5.115v-9.392l0.104,0.005   C63.386,29.898,65.236,33.626,66.326,39.084 M61.211,39.785h5.246c0.539,2.957,0.858,6.366,0.879,9.972h-6.094h-0.01   c-0.003-0.201-0.012-0.402-0.021-0.604v-0.225V39.785z M61.211,51.063c0.01-0.201,0.019-0.402,0.021-0.604h0.01h6.094   c-0.021,3.607-0.34,7.016-0.879,9.972h-5.246v-9.143V51.063z M61.211,61.133h5.115c-1.09,5.459-2.941,9.188-5.012,9.387   l-0.104,0.005V61.133z M63.264,70.257c1.611-1.542,2.947-4.81,3.795-9.124h5.273C70.322,65.9,67.063,69.317,63.264,70.257    M66.184,69.814c2.878-1.687,5.298-4.762,6.896-8.682h4.959C75.33,65.337,71.129,68.477,66.184,69.814 M68.039,49.757   c-0.02-3.64-0.32-7.029-0.848-9.972h5.426c1.127,2.939,1.795,6.337,1.834,9.972H68.039z M74.451,50.459   c-0.039,3.634-0.699,7.037-1.826,9.972h-5.437c0.529-2.941,0.831-6.329,0.851-9.972H74.451z M78.466,60.431h-5.101   c1.104-2.959,1.75-6.354,1.789-9.972h6.122C81.215,54.094,80.195,57.492,78.466,60.431 M60.509,70.524l-0.058-0.003   c-1.711-0.123-3.277-2.659-4.392-6.599c0-0.002-0.001-0.004-0.001-0.006c0.753-0.869,1.439-1.799,2.045-2.784h0.003h2.402V70.524z    M60.509,60.431h-1.986h-0.012c0.853-1.514,1.532-3.136,1.998-4.847v0.021V60.431z M60.509,50.772   c-0.114,3.516-1.115,6.805-2.796,9.658h-2.448c-0.508-2.781-0.823-5.959-0.876-9.329c-0.002-0.107-0.002-0.217-0.003-0.324   c0.002-0.107,0.015-0.21,0.017-0.318h6.106V50.772z M60.509,49.757h-6.106c-0.002-0.107-0.015-0.211-0.017-0.317   c0.001-0.108,0.001-0.216,0.003-0.324c0.053-3.37,0.368-6.549,0.876-9.33h2.448c1.681,2.854,2.682,6.143,2.796,9.66V49.757z    M60.509,44.632c-0.466-1.711-1.146-3.333-1.998-4.847h0.011h1.987v4.826V44.632z M60.509,39.084h-2.401h-0.004   c-0.605-0.985-1.291-1.916-2.045-2.785c0-0.002,0.001-0.004,0.001-0.006c1.114-3.939,2.681-6.476,4.392-6.598l0.058-0.003V39.084z    M55.836,37.131c0.517,0.625,1.011,1.27,1.451,1.953h-1.893C55.531,38.405,55.679,37.753,55.836,37.131 M58.468,29.957   c-1.154,1.104-2.169,3.091-2.964,5.718c-0.002,0.005-0.002,0.008-0.004,0.012c-0.782-0.836-1.629-1.608-2.537-2.308   c0.002-0.002,0.003-0.004,0.005-0.005C54.576,31.648,56.447,30.454,58.468,29.957 M55.537,30.402   c-1.117,0.655-2.164,1.518-3.123,2.56c-0.002,0.001-0.002,0.003-0.004,0.004c-0.4-0.288-0.808-0.565-1.229-0.825   c0.001,0,0.001,0,0.001-0.001C52.549,31.402,54.008,30.816,55.537,30.402 M51.943,33.498c-0.517,0.612-1.004,1.277-1.459,1.991   c-0.002,0.003-0.005,0.008-0.007,0.011c-0.458-0.719-0.949-1.387-1.47-2.004c0.004-0.002,0.007-0.005,0.011-0.008   c0.472-0.336,0.959-0.653,1.459-0.949C50.981,32.837,51.469,33.159,51.943,33.498 M49.766,32.153   c-0.413,0.256-0.817,0.524-1.211,0.809c-0.001,0.001-0.003,0.002-0.004,0.003c-0.958-1.04-2.003-1.908-3.119-2.562   C46.958,30.815,48.403,31.418,49.766,32.153 M42.501,29.956c2.02,0.497,3.887,1.696,5.496,3.421   c-0.904,0.697-1.752,1.466-2.532,2.298c-0.002,0.002-0.004,0.005-0.006,0.008C44.666,33.058,43.656,31.061,42.501,29.956    M44.908,36.294c-0.755,0.871-1.439,1.804-2.046,2.79h-2.402v-9.392l0.104,0.005C42.258,29.861,43.805,32.391,44.908,36.294    M40.459,39.785h1.988c-0.849,1.508-1.523,3.126-1.988,4.829V39.785z M43.683,39.084c0.443-0.688,0.925-1.347,1.445-1.974   c0.16,0.628,0.309,1.287,0.446,1.974H43.683z M40.459,49.243c0.145-3.442,1.148-6.658,2.796-9.458h2.449   c0.525,2.874,0.836,6.177,0.872,9.671c-0.002,0.101-0.005,0.201-0.006,0.301h-6.111V49.243z M40.459,50.459h6.111   c0.001,0.102,0.004,0.201,0.006,0.301c-0.036,3.494-0.347,6.799-0.872,9.671h-2.449c-1.648-2.8-2.651-6.017-2.796-9.457V50.459z    M40.459,55.603c0.465,1.703,1.138,3.32,1.987,4.828h-1.987V55.603z M40.459,61.133h2.403c0.606,0.986,1.291,1.919,2.045,2.789   c-1.103,3.905-2.651,6.435-4.345,6.598l-0.103,0.005V61.133z M45.127,63.106c-0.52-0.627-1.002-1.286-1.445-1.974h1.891   C45.437,61.819,45.288,62.479,45.127,63.106 M42.512,70.257c1.152-1.102,2.159-3.099,2.952-5.718   c0.002,0.002,0.004,0.004,0.006,0.006c0.778,0.829,1.622,1.596,2.523,2.29C46.388,68.559,44.526,69.759,42.512,70.257    M45.432,69.814c1.116-0.654,2.161-1.523,3.119-2.563c0.001,0.001,0.003,0.002,0.004,0.003c0.394,0.284,0.798,0.554,1.211,0.81   C48.403,68.798,46.958,69.401,45.432,69.814 M49.019,66.729c-0.004-0.003-0.007-0.006-0.011-0.009   c0.521-0.615,1.012-1.284,1.47-2.004c0.002,0.004,0.005,0.009,0.007,0.012c0.455,0.714,0.942,1.379,1.459,1.991   c-0.475,0.339-0.962,0.66-1.466,0.958C49.977,67.381,49.491,67.064,49.019,66.729 M51.183,68.076   c0.42-0.26,0.827-0.538,1.228-0.826c0.002,0.001,0.002,0.003,0.004,0.005c0.959,1.041,2.006,1.904,3.123,2.56   C54.008,69.4,52.549,68.813,51.183,68.076L51.183,68.076 M54.668,61.133c0.18,0.919,0.384,1.79,0.605,2.608   c-0.846,0.939-1.775,1.799-2.779,2.568c-0.576-0.678-1.115-1.424-1.611-2.233c-0.001-0.002-0.002-0.004-0.004-0.006   c0.535-0.914,1.025-1.894,1.451-2.938H54.668z M53.91,55.669c0.145,1.685,0.354,3.279,0.619,4.762h-1.916   c0.555-1.487,0.992-3.084,1.297-4.765C53.91,55.667,53.91,55.668,53.91,55.669 M54.529,39.785   c-0.266,1.482-0.475,3.078-0.619,4.762c0,0.001,0,0.002,0,0.003c-0.305-1.68-0.742-3.276-1.297-4.765H54.529z M50.879,36.146   c0.002-0.002,0.003-0.004,0.004-0.006c0.496-0.81,1.035-1.557,1.611-2.233c1.004,0.769,1.934,1.629,2.779,2.569   c-0.222,0.816-0.426,1.688-0.605,2.607H52.33C51.904,38.039,51.414,37.061,50.879,36.146 M50.482,36.824   c0.399,0.714,0.77,1.466,1.104,2.26h-2.202C49.717,38.291,50.083,37.536,50.482,36.824 M46.303,39.084   c-0.183-0.928-0.392-1.796-0.617-2.62c0.002-0.002,0.003-0.004,0.005-0.006c0.843-0.936,1.772-1.793,2.773-2.559   c0.58,0.68,1.121,1.432,1.62,2.246c-0.535,0.913-1.018,1.896-1.444,2.938H46.303z M46.439,39.785h1.917   c-0.556,1.49-0.995,3.09-1.298,4.774c0,0.002-0.001,0.004-0.001,0.005C46.914,42.874,46.707,41.272,46.439,39.785 M46.437,60.431   c0.268-1.488,0.476-3.092,0.62-4.782c0.001,0.002,0.001,0.004,0.001,0.005c0.304,1.685,0.743,3.286,1.299,4.777H46.437z    M50.079,64.062c-0.499,0.815-1.041,1.568-1.621,2.251c-0.997-0.766-1.923-1.618-2.763-2.552c-0.002-0.002-0.004-0.004-0.006-0.006   c0.226-0.824,0.435-1.693,0.618-2.623h2.333C49.063,62.172,49.545,63.152,50.079,64.062 M51.578,61.133   c-0.332,0.79-0.703,1.539-1.101,2.25c-0.397-0.709-0.763-1.461-1.094-2.25H51.578z M53.681,49.757h-6.393   c-0.001-0.113-0.007-0.223-0.009-0.337c0.002-0.062,0.002-0.125,0.004-0.187c0.096-3.438,0.749-6.65,1.822-9.448h2.761   c1.078,2.813,1.729,6.049,1.819,9.508C53.683,49.447,53.681,49.603,53.681,49.757 M53.685,50.93   c-0.089,3.455-0.733,6.693-1.812,9.501h-2.769c-1.073-2.797-1.726-6.01-1.822-9.447c-0.002-0.062-0.002-0.125-0.004-0.188   c0.002-0.113,0.008-0.223,0.009-0.337h6.393C53.681,50.616,53.683,50.772,53.685,50.93 M55.395,61.133h1.893   c-0.44,0.685-0.935,1.328-1.451,1.952C55.678,62.463,55.531,61.812,55.395,61.133 M58.468,70.259   c-2.021-0.497-3.892-1.69-5.5-3.416c-0.002-0.002-0.003-0.004-0.005-0.006c0.908-0.698,1.755-1.471,2.537-2.307   c0.002,0.004,0.002,0.007,0.004,0.011C56.299,67.167,57.313,69.155,58.468,70.259 M39.758,70.524L39.7,70.521   c-2.088-0.15-3.959-3.892-5.056-9.389h5.114V70.524z M39.758,60.431h-5.245c-0.541-2.957-0.862-6.363-0.882-9.972h6.097   c0.005,0.273,0.015,0.545,0.03,0.815V60.431z M39.758,48.942c-0.015,0.27-0.025,0.542-0.03,0.814H33.63   c0.02-3.607,0.341-7.015,0.882-9.972h5.245V48.942z M39.758,39.084h-5.114c1.097-5.499,2.968-9.24,5.056-9.389l0.058-0.003V39.084z    M37.716,29.957c-1.612,1.541-2.951,4.805-3.8,9.127h-5.284C30.64,34.3,33.909,30.895,37.716,29.957 M34.786,30.402   c-2.877,1.686-5.298,4.761-6.897,8.682h-4.958C25.639,34.879,29.841,31.74,34.786,30.402 M22.503,39.785h5.101   c-1.104,2.96-1.746,6.355-1.786,9.972h-6.126C19.754,46.122,20.773,42.725,22.503,39.785 M19.692,50.459h6.126   c0.04,3.617,0.682,7.013,1.786,9.972h-5.101C20.773,57.492,19.754,54.094,19.692,50.459 M22.931,61.133h4.958   c1.599,3.92,4.02,6.995,6.897,8.682C29.841,68.477,25.639,65.337,22.931,61.133 M33.916,61.133c0.849,4.32,2.188,7.585,3.8,9.126   c-3.807-0.936-7.076-4.343-9.084-9.126H33.916z M32.929,49.757h-6.408c0.04-3.635,0.705-7.032,1.832-9.972h5.424   C33.25,42.728,32.947,46.116,32.929,49.757 M32.929,50.459c0.018,3.642,0.321,7.03,0.848,9.972h-5.424   c-1.127-2.938-1.792-6.337-1.832-9.972H32.929z M81.996,50.108c0-3.922-1.092-7.584-2.961-10.736   c-0.017-0.086-0.062-0.16-0.129-0.212c-3.488-5.727-9.609-9.663-16.679-10.119c-0.358-0.042-0.72-0.068-1.086-0.068l-0.054,0.012   c-0.077-0.001-0.15-0.012-0.227-0.012c-0.078,0-0.152,0.011-0.228,0.012l-0.054-0.012c-0.367,0-0.728,0.026-1.086,0.068   c-3.261,0.21-6.318,1.16-9.01,2.686c-0.003,0.002-0.006,0.003-0.009,0.005c-2.69-1.523-5.742-2.48-9-2.69   c-0.359-0.042-0.72-0.068-1.086-0.068l-0.054,0.012c-0.077-0.001-0.15-0.012-0.227-0.012c-0.077,0-0.151,0.011-0.227,0.012   l-0.054-0.012c-0.366,0-0.727,0.026-1.086,0.068c-7.069,0.456-13.19,4.393-16.678,10.119c-0.068,0.052-0.113,0.126-0.129,0.212   c-1.869,3.152-2.962,6.814-2.962,10.736s1.093,7.584,2.962,10.735c0.016,0.088,0.061,0.16,0.129,0.213   c3.488,5.728,9.609,9.662,16.678,10.118c0.359,0.042,0.72,0.069,1.086,0.069l0.054-0.012c0.076,0.001,0.15,0.012,0.227,0.012   c0.077,0,0.15-0.011,0.227-0.012l0.054,0.012c0.366,0,0.727-0.027,1.086-0.069c3.258-0.21,6.31-1.167,9-2.689   c0.003,0.002,0.006,0.004,0.009,0.005c2.691,1.525,5.749,2.475,9.01,2.685c0.358,0.042,0.719,0.069,1.086,0.069l0.053-0.012   c0.076,0.001,0.15,0.012,0.229,0.012c0.076,0,0.149-0.011,0.227-0.012l0.054,0.012c0.366,0,0.728-0.027,1.086-0.069   c7.069-0.456,13.19-4.391,16.679-10.118c0.066-0.053,0.112-0.125,0.129-0.213C80.904,57.692,81.996,54.03,81.996,50.108    M81.076,35.785c0.019-0.07-0.022-0.142-0.094-0.161c-0.346-0.093-0.697-0.181-1.054-0.266c-0.07-0.017-0.142,0.026-0.158,0.097   c-0.017,0.071,0.026,0.142,0.097,0.158c0.354,0.084,0.703,0.172,1.049,0.265l0.033,0.004C81.007,35.882,81.06,35.843,81.076,35.785    M83.022,36.514c0.056,0,0.104-0.035,0.124-0.09c0.023-0.067-0.013-0.143-0.082-0.166c-0.339-0.116-0.686-0.228-1.035-0.334   c-0.072-0.021-0.143,0.019-0.164,0.087c-0.021,0.069,0.019,0.144,0.088,0.164c0.348,0.105,0.689,0.217,1.027,0.331L83.022,36.514z    M84.24,67.709c-0.275,0.207-0.557,0.412-0.841,0.615c-0.06,0.042-0.073,0.124-0.03,0.183l0.106,0.056l0.075-0.024   c0.287-0.205,0.568-0.411,0.847-0.619c0.058-0.044,0.07-0.126,0.026-0.184C84.382,67.677,84.299,67.666,84.24,67.709    M85.166,37.209c0.029-0.065-0.002-0.143-0.068-0.172c-0.33-0.141-0.667-0.277-1.01-0.409c-0.066-0.025-0.143,0.008-0.17,0.076   c-0.026,0.067,0.009,0.144,0.076,0.169c0.34,0.13,0.672,0.266,1,0.405l0.051,0.011L85.166,37.209z M85.877,66.419   c-0.266,0.222-0.535,0.438-0.811,0.655c-0.057,0.045-0.066,0.127-0.021,0.184l0.103,0.051l0.081-0.028   c0.277-0.218,0.549-0.438,0.816-0.66c0.056-0.046,0.062-0.129,0.017-0.184C86.016,66.381,85.933,66.373,85.877,66.419    M87.115,38.157c0.034-0.064,0.01-0.144-0.054-0.178c-0.312-0.167-0.64-0.332-0.971-0.492c-0.066-0.031-0.146-0.004-0.175,0.061   c-0.032,0.066-0.004,0.145,0.061,0.176c0.33,0.158,0.652,0.321,0.962,0.487L87,38.227L87.115,38.157z M87.623,65.24   c0.054-0.049,0.057-0.132,0.008-0.185c-0.051-0.055-0.133-0.059-0.186-0.008c-0.254,0.233-0.512,0.467-0.775,0.696   c-0.055,0.047-0.061,0.131-0.012,0.186l0.099,0.045l0.086-0.033C87.107,65.709,87.367,65.477,87.623,65.24 M88.967,39.283   c0.041-0.06,0.025-0.142-0.035-0.182c-0.295-0.198-0.604-0.396-0.92-0.585c-0.064-0.038-0.143-0.018-0.18,0.045   c-0.039,0.062-0.018,0.142,0.045,0.18c0.312,0.188,0.617,0.382,0.908,0.577l0.073,0.021L88.967,39.283z M89.121,63.771   c0.049-0.054,0.049-0.136-0.004-0.186c-0.052-0.049-0.135-0.049-0.186,0.004c-0.238,0.248-0.482,0.494-0.732,0.74l-0.002,0.186   l0.094,0.039l0.092-0.038C88.635,64.271,88.881,64.021,89.121,63.771 M89.641,62.827c-0.048,0.054-0.044,0.137,0.01,0.185   l0.088,0.034l0.098-0.043c0.236-0.263,0.466-0.526,0.688-0.793c0.048-0.055,0.039-0.138-0.016-0.184   c-0.056-0.046-0.138-0.04-0.185,0.016C90.103,62.306,89.875,62.567,89.641,62.827 M90.683,40.605   c0.047-0.056,0.04-0.139-0.015-0.186c-0.269-0.23-0.555-0.461-0.848-0.685c-0.059-0.044-0.141-0.033-0.185,0.024   c-0.044,0.059-0.032,0.141,0.024,0.185c0.291,0.22,0.572,0.447,0.838,0.675l0.084,0.032L90.683,40.605z M91.602,60.4   c-0.2,0.279-0.408,0.557-0.623,0.833c-0.045,0.057-0.033,0.139,0.023,0.184l0.08,0.027l0.104-0.05   c0.217-0.279,0.428-0.561,0.629-0.842c0.042-0.058,0.029-0.141-0.029-0.183C91.727,60.327,91.644,60.341,91.602,60.4    M92.215,42.136c0.054-0.048,0.059-0.131,0.011-0.185c-0.237-0.27-0.491-0.537-0.752-0.793l-0.187,0.002l0.002,0.187   c0.258,0.251,0.506,0.513,0.74,0.777l0.098,0.045L92.215,42.136z M93.502,43.875c0.062-0.038,0.08-0.119,0.041-0.18   c-0.192-0.303-0.403-0.605-0.625-0.899c-0.043-0.057-0.125-0.067-0.184-0.024c-0.058,0.043-0.068,0.126-0.025,0.184   c0.218,0.288,0.424,0.584,0.613,0.88l0.109,0.062L93.502,43.875z M93.889,56.768c-0.066-0.031-0.145-0.002-0.174,0.062   c-0.143,0.305-0.299,0.617-0.465,0.928c-0.033,0.064-0.008,0.145,0.055,0.179l0.062,0.015l0.115-0.069   c0.168-0.315,0.326-0.633,0.469-0.941C93.982,56.875,93.955,56.797,93.889,56.768 M94.485,45.803   c0.066-0.027,0.099-0.104,0.07-0.171c-0.138-0.333-0.295-0.667-0.465-0.99c-0.033-0.065-0.115-0.089-0.177-0.057   c-0.064,0.034-0.09,0.113-0.056,0.177c0.166,0.319,0.32,0.646,0.455,0.971l0.121,0.081L94.485,45.803z M94.651,54.822   c-0.071-0.024-0.143,0.014-0.166,0.083c-0.108,0.326-0.229,0.653-0.356,0.973c-0.027,0.068,0.006,0.145,0.072,0.171l0.049,0.01   l0.121-0.082c0.131-0.325,0.254-0.657,0.363-0.988C94.758,54.919,94.721,54.845,94.651,54.822 M95.211,47.699   c-0.039-0.171-0.08-0.342-0.125-0.513c-0.049-0.178-0.1-0.354-0.154-0.526c-0.021-0.069-0.096-0.107-0.164-0.085   c-0.07,0.021-0.107,0.095-0.086,0.164c0.054,0.17,0.104,0.341,0.15,0.515c0.045,0.167,0.086,0.335,0.123,0.503   c0.015,0.061,0.068,0.103,0.129,0.103l0.029-0.004C95.184,47.84,95.228,47.77,95.211,47.699 M95.492,49.802   c-0.017-0.354-0.049-0.708-0.095-1.052c-0.01-0.07-0.069-0.125-0.147-0.111c-0.071,0.009-0.123,0.074-0.112,0.146   c0.045,0.336,0.075,0.683,0.093,1.03c0.003,0.069,0.061,0.125,0.131,0.125l0.006-0.001C95.44,49.937,95.496,49.874,95.492,49.802"/></g><text x="0" y="0" fill="#1a1b71" font-size="0px" font-weight="bold" font-family="'Helvetica Neue', Helvetica, Arial-Unicode, Arial, Sans-serif"></text><text x="0" y="120" fill="#1a1b71" font-size="0px" font-weight="bold" font-family="'Helvetica Neue', Helvetica, Arial-Unicode, Arial, Sans-serif"></text></svg>